<mxfile host="app.diagrams.net" agent="Mozilla/5.0 (X11; Linux x86_64; rv:132.0) Gecko/20100101 Firefox/132.0" version="24.8.6">
  <diagram name="Page-1" id="q6GDC71LdRmAc72PtHWJ">
    <mxGraphModel dx="1021" dy="824" grid="1" gridSize="10" guides="1" tooltips="1" connect="1" arrows="1" fold="1" page="1" pageScale="1" pageWidth="850" pageHeight="1100" math="0" shadow="0">
      <root>
        <mxCell id="0" />
        <mxCell id="1" parent="0" />
        <mxCell id="J32bGVidxV7TFzXrQul5-2" value="&lt;div&gt;Q0&lt;/div&gt;" style="ellipse;whiteSpace=wrap;html=1;aspect=fixed;" parent="1" vertex="1">
          <mxGeometry x="80" y="80" width="80" height="80" as="geometry" />
        </mxCell>
        <mxCell id="J32bGVidxV7TFzXrQul5-30" style="edgeStyle=orthogonalEdgeStyle;rounded=0;orthogonalLoop=1;jettySize=auto;html=1;exitX=0.5;exitY=0;exitDx=0;exitDy=0;entryX=0.5;entryY=0;entryDx=0;entryDy=0;" parent="1" source="J32bGVidxV7TFzXrQul5-3" target="J32bGVidxV7TFzXrQul5-2" edge="1">
          <mxGeometry relative="1" as="geometry" />
        </mxCell>
        <mxCell id="J32bGVidxV7TFzXrQul5-31" value="1/0" style="edgeLabel;html=1;align=center;verticalAlign=middle;resizable=0;points=[];" parent="J32bGVidxV7TFzXrQul5-30" vertex="1" connectable="0">
          <mxGeometry x="-0.009" y="3" relative="1" as="geometry">
            <mxPoint y="-3" as="offset" />
          </mxGeometry>
        </mxCell>
        <mxCell id="J32bGVidxV7TFzXrQul5-3" value="&lt;div&gt;Q1&lt;/div&gt;" style="ellipse;whiteSpace=wrap;html=1;aspect=fixed;" parent="1" vertex="1">
          <mxGeometry x="240" y="80" width="80" height="80" as="geometry" />
        </mxCell>
        <mxCell id="J32bGVidxV7TFzXrQul5-4" value="Q2" style="ellipse;whiteSpace=wrap;html=1;aspect=fixed;" parent="1" vertex="1">
          <mxGeometry x="400" y="80" width="80" height="80" as="geometry" />
        </mxCell>
        <mxCell id="J32bGVidxV7TFzXrQul5-6" value="" style="endArrow=classic;html=1;rounded=0;exitX=1;exitY=0.5;exitDx=0;exitDy=0;entryX=0;entryY=0.5;entryDx=0;entryDy=0;" parent="1" source="J32bGVidxV7TFzXrQul5-2" target="J32bGVidxV7TFzXrQul5-3" edge="1">
          <mxGeometry width="50" height="50" relative="1" as="geometry">
            <mxPoint x="220" y="140" as="sourcePoint" />
            <mxPoint x="270" y="90" as="targetPoint" />
          </mxGeometry>
        </mxCell>
        <mxCell id="J32bGVidxV7TFzXrQul5-14" value="1/0" style="edgeLabel;html=1;align=center;verticalAlign=middle;resizable=0;points=[];" parent="J32bGVidxV7TFzXrQul5-6" vertex="1" connectable="0">
          <mxGeometry x="-0.1067" y="-2" relative="1" as="geometry">
            <mxPoint y="-2" as="offset" />
          </mxGeometry>
        </mxCell>
        <mxCell id="J32bGVidxV7TFzXrQul5-7" value="" style="endArrow=classic;html=1;rounded=0;exitX=1;exitY=0.5;exitDx=0;exitDy=0;entryX=0;entryY=0.5;entryDx=0;entryDy=0;" parent="1" source="J32bGVidxV7TFzXrQul5-3" target="J32bGVidxV7TFzXrQul5-4" edge="1">
          <mxGeometry width="50" height="50" relative="1" as="geometry">
            <mxPoint x="440" y="130" as="sourcePoint" />
            <mxPoint x="490" y="80" as="targetPoint" />
          </mxGeometry>
        </mxCell>
        <mxCell id="J32bGVidxV7TFzXrQul5-15" value="0/0" style="edgeLabel;html=1;align=center;verticalAlign=middle;resizable=0;points=[];" parent="J32bGVidxV7TFzXrQul5-7" vertex="1" connectable="0">
          <mxGeometry x="-0.0014" relative="1" as="geometry">
            <mxPoint as="offset" />
          </mxGeometry>
        </mxCell>
        <mxCell id="J32bGVidxV7TFzXrQul5-20" style="edgeStyle=orthogonalEdgeStyle;rounded=0;orthogonalLoop=1;jettySize=auto;html=1;exitX=0.5;exitY=0;exitDx=0;exitDy=0;entryX=0.625;entryY=0.008;entryDx=0;entryDy=0;entryPerimeter=0;" parent="1" source="J32bGVidxV7TFzXrQul5-4" target="J32bGVidxV7TFzXrQul5-3" edge="1">
          <mxGeometry relative="1" as="geometry" />
        </mxCell>
        <mxCell id="J32bGVidxV7TFzXrQul5-21" value="0/0" style="edgeLabel;html=1;align=center;verticalAlign=middle;resizable=0;points=[];" parent="J32bGVidxV7TFzXrQul5-20" vertex="1" connectable="0">
          <mxGeometry x="0.0092" y="2" relative="1" as="geometry">
            <mxPoint as="offset" />
          </mxGeometry>
        </mxCell>
        <mxCell id="J32bGVidxV7TFzXrQul5-26" style="edgeStyle=orthogonalEdgeStyle;rounded=0;orthogonalLoop=1;jettySize=auto;html=1;exitX=0;exitY=0.5;exitDx=0;exitDy=0;entryX=0.5;entryY=1;entryDx=0;entryDy=0;" parent="1" source="J32bGVidxV7TFzXrQul5-2" target="J32bGVidxV7TFzXrQul5-2" edge="1">
          <mxGeometry relative="1" as="geometry" />
        </mxCell>
        <mxCell id="J32bGVidxV7TFzXrQul5-27" value="&lt;div&gt;0/1&lt;/div&gt;" style="edgeLabel;html=1;align=center;verticalAlign=middle;resizable=0;points=[];" parent="J32bGVidxV7TFzXrQul5-26" vertex="1" connectable="0">
          <mxGeometry x="-0.0101" relative="1" as="geometry">
            <mxPoint as="offset" />
          </mxGeometry>
        </mxCell>
        <mxCell id="J32bGVidxV7TFzXrQul5-28" style="edgeStyle=orthogonalEdgeStyle;rounded=0;orthogonalLoop=1;jettySize=auto;html=1;exitX=1;exitY=0.5;exitDx=0;exitDy=0;entryX=0.5;entryY=1;entryDx=0;entryDy=0;" parent="1" source="J32bGVidxV7TFzXrQul5-4" target="J32bGVidxV7TFzXrQul5-4" edge="1">
          <mxGeometry relative="1" as="geometry" />
        </mxCell>
        <mxCell id="J32bGVidxV7TFzXrQul5-29" value="1/0" style="edgeLabel;html=1;align=center;verticalAlign=middle;resizable=0;points=[];" parent="J32bGVidxV7TFzXrQul5-28" vertex="1" connectable="0">
          <mxGeometry x="-0.0161" y="1" relative="1" as="geometry">
            <mxPoint as="offset" />
          </mxGeometry>
        </mxCell>
      </root>
    </mxGraphModel>
  </diagram>
</mxfile>
